STARTFONT 2.1
COMMENT  
COMMENT  Copyright (c) 1984, 1987 Adobe Systems Incorporated. All Rights Reserved. Copyright (c) 1988, 1991 Digital Equipment Corporation. All Rights Reserved.
COMMENT  
COMMENT  WARNING:  This bdf file was generated from a font server using
COMMENT  fstobdf.  The resulting font is subject to the same copyright,
COMMENT  license, and trademark restrictions as the original font.  The
COMMENT  authors and distributors of fstobdf disclaim all liability for
COMMENT  misuse of the program or its output.
COMMENT  
FONT -Adobe-Times-Bold-R-Normal--10-100-75-75-P-57-ISO8859-1
SIZE 10 75 75
FONTBOUNDINGBOX 12 13 -1 -3
STARTPROPERTIES 32
FOUNDRY "Adobe"
FAMILY_NAME "Times"
WEIGHT_NAME "Bold"
SLANT "R"
SETWIDTH_NAME "Normal"
ADD_STYLE_NAME ""
PIXEL_SIZE 10
POINT_SIZE 100
RESOLUTION_X 75
RESOLUTION_Y 75
SPACING "P"
AVERAGE_WIDTH 57
CHARSET_REGISTRY "ISO8859"
CHARSET_ENCODING "1"
CAP_HEIGHT 7
X_HEIGHT 5
FACE_NAME "Times Bold"
COPYRIGHT "Copyright (c) 1984, 1987 Adobe Systems Incorporated. All Rights Reserved. Copyright (c) 1988, 1991 Digital Equipment Corporation. All Rights Reserved."
NOTICE "Times is a trademark of Linotype-Hell AG and/or its subsidiaries."
_DEC_DEVICE_FONTNAMES "PS=Times-Bold"
_DEC_PRODUCTINFO "DECwindows Fonts V2.2, 07-Nov-1991"
RELATIVE_SETWIDTH 50
RELATIVE_WEIGHT 70
CHARSET_COLLECTIONS "ASCII ISO8859-1 ADOBE-STANDARD"
FULL_NAME "Times Bold"
FONT "-Adobe-Times-Bold-R-Normal--10-100-75-75-P-57-ISO8859-1"
WEIGHT 10
RESOLUTION 103
QUAD_WIDTH 6
DEFAULT_CHAR 32
FONT_ASCENT 9
FONT_DESCENT 3
ENDPROPERTIES
CHARS 191
STARTCHAR space
ENCODING 32
SWIDTH 192 0
DWIDTH 2 0
BBX 1 1 0 0
BITMAP
00
ENDCHAR
STARTCHAR exclam
ENCODING 33
SWIDTH 384 0
DWIDTH 4 0
BBX 2 7 1 0
BITMAP
c0
c0
c0
c0
00
c0
c0
ENDCHAR
STARTCHAR quotedbl
ENCODING 34
SWIDTH 480 0
DWIDTH 5 0
BBX 3 3 1 4
BITMAP
a0
a0
a0
ENDCHAR
STARTCHAR numbersign
ENCODING 35
SWIDTH 576 0
DWIDTH 6 0
BBX 5 7 0 0
BITMAP
50
50
f8
50
f8
50
50
ENDCHAR
STARTCHAR dollar
ENCODING 36
SWIDTH 480 0
DWIDTH 5 0
BBX 5 9 0 -1
BITMAP
20
70
a8
e0
70
38
a8
f0
20
ENDCHAR
STARTCHAR percent
ENCODING 37
SWIDTH 864 0
DWIDTH 9 0
BBX 7 7 0 0
BITMAP
76
dc
e8
10
2e
5a
9c
ENDCHAR
STARTCHAR ampersand
ENCODING 38
SWIDTH 864 0
DWIDTH 9 0
BBX 7 7 1 0
BITMAP
30
68
68
76
dc
cc
76
ENDCHAR
STARTCHAR apostrophe
ENCODING 39
SWIDTH 384 0
DWIDTH 4 0
BBX 2 3 1 4
BITMAP
c0
c0
40
ENDCHAR
STARTCHAR parenleft
ENCODING 40
SWIDTH 384 0
DWIDTH 4 0
BBX 3 10 0 -3
BITMAP
20
60
40
c0
c0
c0
c0
40
60
20
ENDCHAR
STARTCHAR parenright
ENCODING 41
SWIDTH 384 0
DWIDTH 4 0
BBX 3 10 0 -3
BITMAP
80
c0
40
60
60
60
60
40
c0
80
ENDCHAR
STARTCHAR asterisk
ENCODING 42
SWIDTH 576 0
DWIDTH 6 0
BBX 5 5 0 2
BITMAP
20
f8
70
f8
20
ENDCHAR
STARTCHAR plus
ENCODING 43
SWIDTH 576 0
DWIDTH 6 0
BBX 5 5 0 0
BITMAP
20
20
f8
20
20
ENDCHAR
STARTCHAR comma
ENCODING 44
SWIDTH 384 0
DWIDTH 4 0
BBX 2 3 0 -1
BITMAP
c0
c0
40
ENDCHAR
STARTCHAR minus
ENCODING 45
SWIDTH 672 0
DWIDTH 7 0
BBX 4 1 1 2
BITMAP
f0
ENDCHAR
STARTCHAR period
ENCODING 46
SWIDTH 288 0
DWIDTH 3 0
BBX 2 2 0 0
BITMAP
c0
c0
ENDCHAR
STARTCHAR slash
ENCODING 47
SWIDTH 288 0
DWIDTH 3 0
BBX 3 7 0 0
BITMAP
20
20
60
40
c0
80
80
ENDCHAR
STARTCHAR 0
ENCODING 48
SWIDTH 480 0
DWIDTH 5 0
BBX 4 7 0 0
BITMAP
60
d0
d0
d0
d0
d0
60
ENDCHAR
STARTCHAR 1
ENCODING 49
SWIDTH 480 0
DWIDTH 5 0
BBX 4 7 0 0
BITMAP
60
e0
60
60
60
60
f0
ENDCHAR
STARTCHAR 2
ENCODING 50
SWIDTH 480 0
DWIDTH 5 0
BBX 4 7 0 0
BITMAP
60
f0
30
20
40
f0
f0
ENDCHAR
STARTCHAR 3
ENCODING 51
SWIDTH 480 0
DWIDTH 5 0
BBX 4 7 0 0
BITMAP
60
b0
30
60
30
b0
e0
ENDCHAR
STARTCHAR 4
ENCODING 52
SWIDTH 480 0
DWIDTH 5 0
BBX 5 7 0 0
BITMAP
10
30
50
90
f8
30
30
ENDCHAR
STARTCHAR 5
ENCODING 53
SWIDTH 480 0
DWIDTH 5 0
BBX 4 7 0 0
BITMAP
e0
e0
80
e0
30
b0
e0
ENDCHAR
STARTCHAR 6
ENCODING 54
SWIDTH 480 0
DWIDTH 5 0
BBX 4 7 0 0
BITMAP
30
60
c0
f0
d0
d0
60
ENDCHAR
STARTCHAR 7
ENCODING 55
SWIDTH 480 0
DWIDTH 5 0
BBX 5 7 0 0
BITMAP
78
f0
90
30
20
60
60
ENDCHAR
STARTCHAR 8
ENCODING 56
SWIDTH 480 0
DWIDTH 5 0
BBX 4 7 0 0
BITMAP
60
d0
d0
60
b0
b0
60
ENDCHAR
STARTCHAR 9
ENCODING 57
SWIDTH 480 0
DWIDTH 5 0
BBX 4 7 0 0
BITMAP
60
b0
b0
b0
70
20
c0
ENDCHAR
STARTCHAR colon
ENCODING 58
SWIDTH 384 0
DWIDTH 4 0
BBX 2 5 1 0
BITMAP
c0
c0
00
c0
c0
ENDCHAR
STARTCHAR semicolon
ENCODING 59
SWIDTH 384 0
DWIDTH 4 0
BBX 2 6 1 -1
BITMAP
c0
c0
00
c0
c0
40
ENDCHAR
STARTCHAR less
ENCODING 60
SWIDTH 576 0
DWIDTH 6 0
BBX 5 5 0 0
BITMAP
18
70
c0
70
18
ENDCHAR
STARTCHAR equal
ENCODING 61
SWIDTH 576 0
DWIDTH 6 0
BBX 5 3 0 1
BITMAP
f8
00
f8
ENDCHAR
STARTCHAR greater
ENCODING 62
SWIDTH 576 0
DWIDTH 6 0
BBX 5 5 0 0
BITMAP
c0
70
18
70
c0
ENDCHAR
STARTCHAR question
ENCODING 63
SWIDTH 576 0
DWIDTH 6 0
BBX 4 7 1 0
BITMAP
60
b0
b0
20
00
60
60
ENDCHAR
STARTCHAR at
ENCODING 64
SWIDTH 1056 0
DWIDTH 11 0
BBX 11 9 0 -2
BITMAP
0f80
30c0
6d60
da60
d260
d240
cd80
6000
3e00
ENDCHAR
STARTCHAR A
ENCODING 65
SWIDTH 672 0
DWIDTH 7 0
BBX 8 7 -1 0
BITMAP
10
18
38
2c
7c
4e
ef
ENDCHAR
STARTCHAR B
ENCODING 66
SWIDTH 672 0
DWIDTH 7 0
BBX 6 7 0 0
BITMAP
f8
6c
6c
78
6c
6c
f8
ENDCHAR
STARTCHAR C
ENCODING 67
SWIDTH 672 0
DWIDTH 7 0
BBX 6 7 0 0
BITMAP
7c
cc
c0
c0
c0
ec
78
ENDCHAR
STARTCHAR D
ENCODING 68
SWIDTH 768 0
DWIDTH 8 0
BBX 7 7 0 0
BITMAP
fc
66
66
66
66
66
fc
ENDCHAR
STARTCHAR E
ENCODING 69
SWIDTH 672 0
DWIDTH 7 0
BBX 6 7 0 0
BITMAP
fc
64
60
70
60
64
fc
ENDCHAR
STARTCHAR F
ENCODING 70
SWIDTH 672 0
DWIDTH 7 0
BBX 6 7 0 0
BITMAP
fc
64
68
78
68
60
f0
ENDCHAR
STARTCHAR G
ENCODING 71
SWIDTH 672 0
DWIDTH 7 0
BBX 6 7 0 0
BITMAP
7c
cc
c0
dc
cc
cc
78
ENDCHAR
STARTCHAR H
ENCODING 72
SWIDTH 864 0
DWIDTH 9 0
BBX 8 7 0 0
BITMAP
e7
66
66
7e
66
66
e7
ENDCHAR
STARTCHAR I
ENCODING 73
SWIDTH 480 0
DWIDTH 5 0
BBX 4 7 0 0
BITMAP
f0
60
60
60
60
60
f0
ENDCHAR
STARTCHAR J
ENCODING 74
SWIDTH 480 0
DWIDTH 5 0
BBX 4 8 0 -1
BITMAP
f0
60
60
60
60
60
60
c0
ENDCHAR
STARTCHAR K
ENCODING 75
SWIDTH 768 0
DWIDTH 8 0
BBX 8 7 0 0
BITMAP
ee
64
68
78
6c
6e
e7
ENDCHAR
STARTCHAR L
ENCODING 76
SWIDTH 672 0
DWIDTH 7 0
BBX 6 7 0 0
BITMAP
f0
60
60
60
64
6c
fc
ENDCHAR
STARTCHAR M
ENCODING 77
SWIDTH 960 0
DWIDTH 10 0
BBX 9 7 0 0
BITMAP
e380
7300
7700
5b00
5b00
4b00
e380
ENDCHAR
STARTCHAR N
ENCODING 78
SWIDTH 768 0
DWIDTH 8 0
BBX 7 7 0 0
BITMAP
ee
64
74
54
5c
4c
e4
ENDCHAR
STARTCHAR O
ENCODING 79
SWIDTH 672 0
DWIDTH 7 0
BBX 6 7 0 0
BITMAP
78
cc
cc
cc
cc
cc
78
ENDCHAR
STARTCHAR P
ENCODING 80
SWIDTH 576 0
DWIDTH 6 0
BBX 6 7 0 0
BITMAP
f8
6c
6c
78
60
60
f0
ENDCHAR
STARTCHAR Q
ENCODING 81
SWIDTH 672 0
DWIDTH 7 0
BBX 6 9 0 -2
BITMAP
78
cc
cc
cc
cc
cc
78
30
1c
ENDCHAR
STARTCHAR R
ENCODING 82
SWIDTH 672 0
DWIDTH 7 0
BBX 7 7 0 0
BITMAP
f8
6c
6c
78
68
6c
ee
ENDCHAR
STARTCHAR S
ENCODING 83
SWIDTH 576 0
DWIDTH 6 0
BBX 5 7 0 0
BITMAP
78
c8
e0
70
38
98
f0
ENDCHAR
STARTCHAR T
ENCODING 84
SWIDTH 672 0
DWIDTH 7 0
BBX 6 7 0 0
BITMAP
fc
b4
30
30
30
30
78
ENDCHAR
STARTCHAR U
ENCODING 85
SWIDTH 672 0
DWIDTH 7 0
BBX 7 7 0 0
BITMAP
f6
64
64
64
64
64
38
ENDCHAR
STARTCHAR V
ENCODING 86
SWIDTH 768 0
DWIDTH 8 0
BBX 8 7 0 0
BITMAP
f3
62
74
34
38
18
10
ENDCHAR
STARTCHAR W
ENCODING 87
SWIDTH 960 0
DWIDTH 10 0
BBX 10 7 0 0
BITMAP
eec0
6c80
6d80
6d00
3700
3600
1200
ENDCHAR
STARTCHAR X
ENCODING 88
SWIDTH 672 0
DWIDTH 7 0
BBX 7 7 0 0
BITMAP
e6
64
38
38
2c
46
ce
ENDCHAR
STARTCHAR Y
ENCODING 89
SWIDTH 768 0
DWIDTH 8 0
BBX 8 7 0 0
BITMAP
f7
62
34
38
18
18
3c
ENDCHAR
STARTCHAR Z
ENCODING 90
SWIDTH 672 0
DWIDTH 7 0
BBX 6 7 0 0
BITMAP
fc
cc
98
30
64
cc
fc
ENDCHAR
STARTCHAR bracketleft
ENCODING 91
SWIDTH 384 0
DWIDTH 4 0
BBX 3 10 0 -3
BITMAP
e0
c0
c0
c0
c0
c0
c0
c0
c0
e0
ENDCHAR
STARTCHAR backslash
ENCODING 92
SWIDTH 288 0
DWIDTH 3 0
BBX 3 7 0 0
BITMAP
80
80
c0
40
60
20
20
ENDCHAR
STARTCHAR bracketright
ENCODING 93
SWIDTH 384 0
DWIDTH 4 0
BBX 3 10 0 -3
BITMAP
e0
60
60
60
60
60
60
60
60
e0
ENDCHAR
STARTCHAR asciicircum
ENCODING 94
SWIDTH 576 0
DWIDTH 6 0
BBX 5 4 0 3
BITMAP
20
70
d8
88
ENDCHAR
STARTCHAR underscore
ENCODING 95
SWIDTH 480 0
DWIDTH 5 0
BBX 5 1 0 -3
BITMAP
f8
ENDCHAR
STARTCHAR grave
ENCODING 96
SWIDTH 384 0
DWIDTH 4 0
BBX 2 3 1 4
BITMAP
80
c0
c0
ENDCHAR
STARTCHAR a
ENCODING 97
SWIDTH 480 0
DWIDTH 5 0
BBX 5 5 0 0
BITMAP
60
b0
70
90
f8
ENDCHAR
STARTCHAR b
ENCODING 98
SWIDTH 480 0
DWIDTH 5 0
BBX 4 7 0 0
BITMAP
c0
c0
e0
d0
d0
d0
e0
ENDCHAR
STARTCHAR c
ENCODING 99
SWIDTH 480 0
DWIDTH 5 0
BBX 4 5 0 0
BITMAP
70
d0
c0
d0
70
ENDCHAR
STARTCHAR d
ENCODING 100
SWIDTH 576 0
DWIDTH 6 0
BBX 6 7 0 0
BITMAP
38
18
78
d8
d8
d8
6c
ENDCHAR
STARTCHAR e
ENCODING 101
SWIDTH 480 0
DWIDTH 5 0
BBX 4 5 0 0
BITMAP
70
d0
f0
c0
70
ENDCHAR
STARTCHAR f
ENCODING 102
SWIDTH 288 0
DWIDTH 3 0
BBX 3 7 0 0
BITMAP
60
c0
e0
c0
c0
c0
e0
ENDCHAR
STARTCHAR g
ENCODING 103
SWIDTH 480 0
DWIDTH 5 0
BBX 5 8 0 -3
BITMAP
78
d0
d0
70
c0
f0
90
f0
ENDCHAR
STARTCHAR h
ENCODING 104
SWIDTH 480 0
DWIDTH 5 0
BBX 5 7 0 0
BITMAP
c0
c0
f0
d0
d0
d0
d8
ENDCHAR
STARTCHAR i
ENCODING 105
SWIDTH 288 0
DWIDTH 3 0
BBX 2 8 0 0
BITMAP
c0
c0
00
c0
c0
c0
c0
c0
ENDCHAR
STARTCHAR j
ENCODING 106
SWIDTH 384 0
DWIDTH 4 0
BBX 3 10 0 -2
BITMAP
60
60
00
60
60
60
60
60
60
c0
ENDCHAR
STARTCHAR k
ENCODING 107
SWIDTH 480 0
DWIDTH 5 0
BBX 5 7 0 0
BITMAP
c0
c0
d8
d0
e0
d0
d8
ENDCHAR
STARTCHAR l
ENCODING 108
SWIDTH 288 0
DWIDTH 3 0
BBX 2 7 0 0
BITMAP
c0
c0
c0
c0
c0
c0
c0
ENDCHAR
STARTCHAR m
ENCODING 109
SWIDTH 768 0
DWIDTH 8 0
BBX 8 5 0 0
BITMAP
ac
fe
d6
d6
d7
ENDCHAR
STARTCHAR n
ENCODING 110
SWIDTH 576 0
DWIDTH 6 0
BBX 6 5 0 0
BITMAP
b0
d8
d8
d8
dc
ENDCHAR
STARTCHAR o
ENCODING 111
SWIDTH 576 0
DWIDTH 6 0
BBX 5 5 0 0
BITMAP
70
d8
d8
d8
70
ENDCHAR
STARTCHAR p
ENCODING 112
SWIDTH 480 0
DWIDTH 5 0
BBX 4 7 0 -2
BITMAP
e0
d0
d0
d0
e0
c0
e0
ENDCHAR
STARTCHAR q
ENCODING 113
SWIDTH 480 0
DWIDTH 5 0
BBX 5 7 0 -2
BITMAP
70
d0
d0
d0
70
30
38
ENDCHAR
STARTCHAR r
ENCODING 114
SWIDTH 384 0
DWIDTH 4 0
BBX 4 5 0 0
BITMAP
d0
f0
c0
c0
c0
ENDCHAR
STARTCHAR s
ENCODING 115
SWIDTH 384 0
DWIDTH 4 0
BBX 3 5 0 0
BITMAP
60
c0
e0
60
e0
ENDCHAR
STARTCHAR t
ENCODING 116
SWIDTH 384 0
DWIDTH 4 0
BBX 3 7 0 0
BITMAP
40
c0
e0
c0
c0
c0
60
ENDCHAR
STARTCHAR u
ENCODING 117
SWIDTH 480 0
DWIDTH 5 0
BBX 5 5 0 0
BITMAP
d8
d0
d0
d0
70
ENDCHAR
STARTCHAR v
ENCODING 118
SWIDTH 480 0
DWIDTH 5 0
BBX 5 5 0 0
BITMAP
d8
d0
70
60
20
ENDCHAR
STARTCHAR w
ENCODING 119
SWIDTH 576 0
DWIDTH 6 0
BBX 6 5 0 0
BITMAP
ac
a8
b8
f0
50
ENDCHAR
STARTCHAR x
ENCODING 120
SWIDTH 480 0
DWIDTH 5 0
BBX 4 5 0 0
BITMAP
d0
f0
60
f0
b0
ENDCHAR
STARTCHAR y
ENCODING 121
SWIDTH 480 0
DWIDTH 5 0
BBX 5 7 0 -2
BITMAP
d8
d8
70
70
20
a0
e0
ENDCHAR
STARTCHAR z
ENCODING 122
SWIDTH 480 0
DWIDTH 5 0
BBX 4 5 0 0
BITMAP
f0
b0
60
d0
f0
ENDCHAR
STARTCHAR braceleft
ENCODING 123
SWIDTH 384 0
DWIDTH 4 0
BBX 4 10 0 -3
BITMAP
30
60
60
40
c0
c0
40
60
60
30
ENDCHAR
STARTCHAR bar
ENCODING 124
SWIDTH 288 0
DWIDTH 3 0
BBX 1 9 1 -2
BITMAP
80
80
80
80
80
80
80
80
80
ENDCHAR
STARTCHAR braceright
ENCODING 125
SWIDTH 384 0
DWIDTH 4 0
BBX 4 10 -1 -3
BITMAP
c0
60
60
20
30
30
20
60
60
c0
ENDCHAR
STARTCHAR asciitilde
ENCODING 126
SWIDTH 576 0
DWIDTH 6 0
BBX 5 2 0 2
BITMAP
68
b0
ENDCHAR
STARTCHAR nobreakspace
ENCODING 160
SWIDTH 192 0
DWIDTH 2 0
BBX 1 1 0 0
BITMAP
00
ENDCHAR
STARTCHAR exclamdown
ENCODING 161
SWIDTH 384 0
DWIDTH 4 0
BBX 2 7 1 -3
BITMAP
00
00
00
00
00
00
00
ENDCHAR
STARTCHAR cent
ENCODING 162
SWIDTH 576 0
DWIDTH 6 0
BBX 5 7 0 -1
BITMAP
00
00
00
00
00
00
00
ENDCHAR
STARTCHAR sterling
ENCODING 163
SWIDTH 576 0
DWIDTH 6 0
BBX 5 7 0 0
BITMAP
00
00
00
00
00
00
00
ENDCHAR
STARTCHAR currency
ENCODING 164
SWIDTH 576 0
DWIDTH 6 0
BBX 5 5 0 1
BITMAP
00
00
00
00
00
ENDCHAR
STARTCHAR yen
ENCODING 165
SWIDTH 576 0
DWIDTH 6 0
BBX 5 7 0 0
BITMAP
00
00
00
00
00
00
00
ENDCHAR
STARTCHAR brokenbar
ENCODING 166
SWIDTH 288 0
DWIDTH 3 0
BBX 1 9 1 -2
BITMAP
80
80
00
80
80
80
80
00
00
ENDCHAR
STARTCHAR section
ENCODING 167
SWIDTH 480 0
DWIDTH 5 0
BBX 4 9 0 -2
BITMAP
d0
d0
e0
70
20
30
60
60
f0
ENDCHAR
STARTCHAR diaeresis
ENCODING 168
SWIDTH 384 0
DWIDTH 4 0
BBX 3 2 0 6
BITMAP
60
e0
ENDCHAR
STARTCHAR copyright
ENCODING 169
SWIDTH 864 0
DWIDTH 9 0
BBX 7 7 1 0
BITMAP
d8
88
70
50
70
88
d8
ENDCHAR
STARTCHAR ordfeminine
ENCODING 170
SWIDTH 384 0
DWIDTH 4 0
BBX 3 6 0 1
BITMAP
c0
60
20
60
20
60
ENDCHAR
STARTCHAR guillemotleft
ENCODING 171
SWIDTH 576 0
DWIDTH 6 0
BBX 5 5 0 0
BITMAP
80
80
80
80
00
ENDCHAR
STARTCHAR notsign
ENCODING 172
SWIDTH 672 0
DWIDTH 7 0
BBX 5 3 1 2
BITMAP
80
80
80
ENDCHAR
STARTCHAR hyphen
ENCODING 173
SWIDTH 288 0
DWIDTH 3 0
BBX 3 1 0 2
BITMAP
80
ENDCHAR
STARTCHAR registered
ENCODING 174
SWIDTH 864 0
DWIDTH 9 0
BBX 7 7 1 0
BITMAP
60
b0
c0
a0
d0
70
30
ENDCHAR
STARTCHAR macron
ENCODING 175
SWIDTH 384 0
DWIDTH 4 0
BBX 3 1 0 6
BITMAP
c0
ENDCHAR
STARTCHAR degree
ENCODING 176
SWIDTH 384 0
DWIDTH 4 0
BBX 3 3 0 4
BITMAP
60
a0
a0
ENDCHAR
STARTCHAR plusminus
ENCODING 177
SWIDTH 576 0
DWIDTH 6 0
BBX 5 7 0 0
BITMAP
38
40
98
a0
98
40
38
ENDCHAR
STARTCHAR twosuperior
ENCODING 178
SWIDTH 288 0
DWIDTH 3 0
BBX 3 4 0 3
BITMAP
c0
20
e0
a0
ENDCHAR
STARTCHAR threesuperior
ENCODING 179
SWIDTH 288 0
DWIDTH 3 0
BBX 3 4 0 3
BITMAP
00
e0
20
40
ENDCHAR
STARTCHAR acute
ENCODING 180
SWIDTH 384 0
DWIDTH 4 0
BBX 3 2 0 5
BITMAP
a0
40
ENDCHAR
STARTCHAR mu
ENCODING 181
SWIDTH 480 0
DWIDTH 5 0
BBX 5 8 0 -3
BITMAP
28
f8
08
08
e0
38
40
b8
ENDCHAR
STARTCHAR paragraph
ENCODING 182
SWIDTH 576 0
DWIDTH 6 0
BBX 6 10 0 -3
BITMAP
b0
a8
44
38
e0
60
a0
c0
20
20
ENDCHAR
STARTCHAR periodcentered
ENCODING 183
SWIDTH 288 0
DWIDTH 3 0
BBX 1 2 1 2
BITMAP
80
00
ENDCHAR
STARTCHAR cedilla
ENCODING 184
SWIDTH 288 0
DWIDTH 3 0
BBX 2 3 1 -3
BITMAP
00
00
c0
ENDCHAR
STARTCHAR onesuperior
ENCODING 185
SWIDTH 288 0
DWIDTH 3 0
BBX 3 4 0 3
BITMAP
60
a0
40
e0
ENDCHAR
STARTCHAR masculine
ENCODING 186
SWIDTH 384 0
DWIDTH 4 0
BBX 3 6 0 1
BITMAP
e0
40
20
c0
60
c0
ENDCHAR
STARTCHAR guillemotright
ENCODING 187
SWIDTH 576 0
DWIDTH 6 0
BBX 5 5 0 0
BITMAP
d8
d0
d0
d0
f0
ENDCHAR
STARTCHAR onequarter
ENCODING 188
SWIDTH 672 0
DWIDTH 7 0
BBX 7 7 0 0
BITMAP
80
c0
c0
7c
e8
e8
e8
ENDCHAR
STARTCHAR onehalf
ENCODING 189
SWIDTH 672 0
DWIDTH 7 0
BBX 7 7 0 0
BITMAP
68
28
28
28
28
28
80
ENDCHAR
STARTCHAR threequarters
ENCODING 190
SWIDTH 672 0
DWIDTH 7 0
BBX 7 7 0 0
BITMAP
80
80
40
c0
40
c0
40
ENDCHAR
STARTCHAR questiondown
ENCODING 191
SWIDTH 576 0
DWIDTH 6 0
BBX 4 7 1 -3
BITMAP
e0
40
a0
a0
40
00
e0
ENDCHAR
STARTCHAR Agrave
ENCODING 192
SWIDTH 672 0
DWIDTH 7 0
BBX 8 10 -1 0
BITMAP
a0
50
28
50
a0
44
c8
48
f4
2c
ENDCHAR
STARTCHAR Aacute
ENCODING 193
SWIDTH 672 0
DWIDTH 7 0
BBX 8 10 -1 0
BITMAP
5e
84
44
c8
48
f6
2a
44
8e
e4
ENDCHAR
STARTCHAR Acircumflex
ENCODING 194
SWIDTH 672 0
DWIDTH 7 0
BBX 8 10 -1 0
BITMAP
48
28
d4
2c
5e
84
60
60
00
40
ENDCHAR
STARTCHAR Atilde
ENCODING 195
SWIDTH 672 0
DWIDTH 7 0
BBX 8 10 -1 0
BITMAP
d0
d0
60
20
10
00
10
18
38
2c
ENDCHAR
STARTCHAR Adiaeresis
ENCODING 196
SWIDTH 672 0
DWIDTH 7 0
BBX 8 10 -1 0
BITMAP
7c
4e
ef
08
10
00
10
18
38
2c
ENDCHAR
STARTCHAR Aring
ENCODING 197
SWIDTH 672 0
DWIDTH 7 0
BBX 8 10 -1 0
BITMAP
7c
4e
ef
18
24
00
10
18
38
2c
ENDCHAR
STARTCHAR AE
ENCODING 198
SWIDTH 864 0
DWIDTH 9 0
BBX 8 7 0 0
BITMAP
7c
4e
ef
34
58
00
10
ENDCHAR
STARTCHAR Ccedilla
ENCODING 199
SWIDTH 672 0
DWIDTH 7 0
BBX 6 10 0 -3
BITMAP
18
38
2c
7c
4c
ec
28
28
00
10
ENDCHAR
STARTCHAR Egrave
ENCODING 200
SWIDTH 672 0
DWIDTH 7 0
BBX 6 10 0 0
BITMAP
18
38
2c
7c
4c
ec
10
28
10
10
ENDCHAR
STARTCHAR Eacute
ENCODING 201
SWIDTH 672 0
DWIDTH 7 0
BBX 6 10 0 0
BITMAP
18
38
2c
7c
4c
ec
7c
38
58
5c
ENDCHAR
STARTCHAR Ecircumflex
ENCODING 202
SWIDTH 672 0
DWIDTH 7 0
BBX 6 10 0 0
BITMAP
f8
98
dc
7c
cc
c0
c0
c0
ec
78
ENDCHAR
STARTCHAR Ediaeresis
ENCODING 203
SWIDTH 672 0
DWIDTH 7 0
BBX 6 10 0 0
BITMAP
20
10
30
20
10
00
fc
64
60
70
ENDCHAR
STARTCHAR Igrave
ENCODING 204
SWIDTH 480 0
DWIDTH 5 0
BBX 4 10 0 0
BITMAP
60
60
f0
00
10
00
f0
60
60
70
ENDCHAR
STARTCHAR Iacute
ENCODING 205
SWIDTH 480 0
DWIDTH 5 0
BBX 4 10 0 0
BITMAP
60
60
f0
30
40
00
f0
60
60
70
ENDCHAR
STARTCHAR Icircumflex
ENCODING 206
SWIDTH 480 0
DWIDTH 5 0
BBX 4 10 0 0
BITMAP
60
60
f0
20
20
00
f0
60
60
70
ENDCHAR
STARTCHAR Idiaeresis
ENCODING 207
SWIDTH 480 0
DWIDTH 5 0
BBX 4 10 0 0
BITMAP
60
60
f0
40
20
00
f0
60
60
60
ENDCHAR
STARTCHAR ETH
ENCODING 208
SWIDTH 768 0
DWIDTH 8 0
BBX 7 7 0 0
BITMAP
60
60
f0
10
20
00
f0
ENDCHAR
STARTCHAR Ntilde
ENCODING 209
SWIDTH 768 0
DWIDTH 8 0
BBX 7 10 0 0
BITMAP
60
60
60
60
60
f0
60
90
00
f0
ENDCHAR
STARTCHAR Ograve
ENCODING 210
SWIDTH 672 0
DWIDTH 7 0
BBX 6 10 0 0
BITMAP
60
60
60
60
60
f0
a0
a0
00
f0
ENDCHAR
STARTCHAR Oacute
ENCODING 211
SWIDTH 672 0
DWIDTH 7 0
BBX 6 10 0 0
BITMAP
60
60
60
60
60
f0
fc
64
64
f4
ENDCHAR
STARTCHAR Ocircumflex
ENCODING 212
SWIDTH 672 0
DWIDTH 7 0
BBX 6 10 0 0
BITMAP
64
64
fc
34
58
00
ec
64
74
54
ENDCHAR
STARTCHAR Otilde
ENCODING 213
SWIDTH 672 0
DWIDTH 7 0
BBX 6 10 0 0
BITMAP
5c
4c
e4
20
10
00
78
cc
cc
cc
ENDCHAR
STARTCHAR Odiaeresis
ENCODING 214
SWIDTH 672 0
DWIDTH 7 0
BBX 6 10 0 0
BITMAP
cc
cc
78
08
10
00
78
cc
cc
cc
ENDCHAR
STARTCHAR multiply
ENCODING 215
SWIDTH 576 0
DWIDTH 6 0
BBX 5 5 0 0
BITMAP
c8
c8
78
30
48
ENDCHAR
STARTCHAR Ooblique
ENCODING 216
SWIDTH 672 0
DWIDTH 7 0
BBX 8 9 -1 -1
BITMAP
00
78
cc
cc
cc
cc
cc
78
34
ENDCHAR
STARTCHAR Ugrave
ENCODING 217
SWIDTH 672 0
DWIDTH 7 0
BBX 7 10 0 0
BITMAP
58
00
78
cc
cc
cc
cc
cc
78
50
ENDCHAR
STARTCHAR Uacute
ENCODING 218
SWIDTH 672 0
DWIDTH 7 0
BBX 7 10 0 0
BITMAP
50
00
78
cc
cc
cc
cc
cc
78
88
ENDCHAR
STARTCHAR Ucircumflex
ENCODING 219
SWIDTH 672 0
DWIDTH 7 0
BBX 7 10 0 0
BITMAP
70
20
70
88
00
3e
66
6e
76
76
ENDCHAR
STARTCHAR Udiaeresis
ENCODING 220
SWIDTH 672 0
DWIDTH 7 0
BBX 7 10 0 0
BITMAP
66
7c
80
10
08
00
f6
64
64
64
ENDCHAR
STARTCHAR Yacute
ENCODING 221
SWIDTH 768 0
DWIDTH 8 0
BBX 8 10 0 0
BITMAP
64
64
38
04
08
00
f6
64
64
64
ENDCHAR
STARTCHAR THORN
ENCODING 222
SWIDTH 576 0
DWIDTH 6 0
BBX 6 7 0 0
BITMAP
64
64
38
18
24
00
f4
ENDCHAR
STARTCHAR ssharp
ENCODING 223
SWIDTH 576 0
DWIDTH 6 0
BBX 5 7 0 0
BITMAP
60
60
60
60
60
38
28
ENDCHAR
STARTCHAR agrave
ENCODING 224
SWIDTH 480 0
DWIDTH 5 0
BBX 5 8 0 0
BITMAP
28
00
f0
60
60
60
60
60
ENDCHAR
STARTCHAR aacute
ENCODING 225
SWIDTH 480 0
DWIDTH 5 0
BBX 5 8 0 0
BITMAP
38
00
08
00
f0
60
30
38
ENDCHAR
STARTCHAR acircumflex
ENCODING 226
SWIDTH 480 0
DWIDTH 5 0
BBX 5 8 0 0
BITMAP
18
18
38
e0
78
68
68
78
ENDCHAR
STARTCHAR atilde
ENCODING 227
SWIDTH 480 0
DWIDTH 5 0
BBX 5 8 0 0
BITMAP
60
f0
70
c8
c8
d0
c8
c8
ENDCHAR
STARTCHAR adiaeresis
ENCODING 228
SWIDTH 480 0
DWIDTH 5 0
BBX 5 8 0 0
BITMAP
d8
40
20
00
60
b0
70
90
ENDCHAR
STARTCHAR aring
ENCODING 229
SWIDTH 480 0
DWIDTH 5 0
BBX 5 8 0 0
BITMAP
f8
10
20
00
60
b0
70
90
ENDCHAR
STARTCHAR ae
ENCODING 230
SWIDTH 768 0
DWIDTH 8 0
BBX 7 5 0 0
BITMAP
f8
60
90
00
60
ENDCHAR
STARTCHAR ccedilla
ENCODING 231
SWIDTH 480 0
DWIDTH 5 0
BBX 4 8 0 -3
BITMAP
b0
70
90
f0
60
b0
00
60
ENDCHAR
STARTCHAR egrave
ENCODING 232
SWIDTH 480 0
DWIDTH 5 0
BBX 4 8 0 0
BITMAP
b0
70
90
f0
50
50
00
60
ENDCHAR
STARTCHAR eacute
ENCODING 233
SWIDTH 480 0
DWIDTH 5 0
BBX 4 8 0 0
BITMAP
b0
70
90
f0
20
50
20
60
ENDCHAR
STARTCHAR ecircumflex
ENCODING 234
SWIDTH 480 0
DWIDTH 5 0
BBX 4 8 0 0
BITMAP
b0
70
90
f0
60
b0
70
b0
ENDCHAR
STARTCHAR ediaeresis
ENCODING 235
SWIDTH 480 0
DWIDTH 5 0
BBX 4 8 0 0
BITMAP
e0
70
d0
c0
d0
70
40
20
ENDCHAR
STARTCHAR igrave
ENCODING 236
SWIDTH 288 0
DWIDTH 3 0
BBX 2 8 0 0
BITMAP
40
40
00
00
40
c0
c0
c0
ENDCHAR
STARTCHAR iacute
ENCODING 237
SWIDTH 288 0
DWIDTH 3 0
BBX 2 8 0 0
BITMAP
40
00
00
00
40
c0
c0
c0
ENDCHAR
STARTCHAR icircumflex
ENCODING 238
SWIDTH 288 0
DWIDTH 3 0
BBX 4 8 -1 0
BITMAP
70
60
90
00
70
d0
f0
c0
ENDCHAR
STARTCHAR idiaeresis
ENCODING 239
SWIDTH 288 0
DWIDTH 3 0
BBX 3 8 -1 0
BITMAP
60
40
40
00
60
c0
e0
c0
ENDCHAR
STARTCHAR eth
ENCODING 240
SWIDTH 576 0
DWIDTH 6 0
BBX 5 8 0 0
BITMAP
70
80
40
00
c0
c0
c0
c0
ENDCHAR
STARTCHAR ntilde
ENCODING 241
SWIDTH 576 0
DWIDTH 6 0
BBX 6 8 0 0
BITMAP
c0
40
80
00
c0
c0
c0
c0
ENDCHAR
STARTCHAR ograve
ENCODING 242
SWIDTH 576 0
DWIDTH 6 0
BBX 5 8 0 0
BITMAP
c0
60
90
00
60
60
60
60
ENDCHAR
STARTCHAR oacute
ENCODING 243
SWIDTH 576 0
DWIDTH 6 0
BBX 5 8 0 0
BITMAP
60
a0
a0
00
60
60
60
60
ENDCHAR
STARTCHAR ocircumflex
ENCODING 244
SWIDTH 576 0
DWIDTH 6 0
BBX 5 8 0 0
BITMAP
60
40
78
b0
78
d8
d8
d8
ENDCHAR
STARTCHAR otilde
ENCODING 245
SWIDTH 576 0
DWIDTH 6 0
BBX 5 8 0 0
BITMAP
70
68
b0
00
b0
d8
d8
d8
ENDCHAR
STARTCHAR odiaeresis
ENCODING 246
SWIDTH 576 0
DWIDTH 6 0
BBX 5 8 0 0
BITMAP
d8
40
20
00
70
d8
d8
d8
ENDCHAR
STARTCHAR division
ENCODING 247
SWIDTH 576 0
DWIDTH 6 0
BBX 5 5 0 0
BITMAP
70
10
20
00
70
ENDCHAR
STARTCHAR oslash
ENCODING 248
SWIDTH 576 0
DWIDTH 6 0
BBX 5 7 0 -1
BITMAP
d8
d8
d8
70
60
90
00
ENDCHAR
STARTCHAR ugrave
ENCODING 249
SWIDTH 480 0
DWIDTH 5 0
BBX 5 8 0 0
BITMAP
70
d8
d8
d8
70
68
b0
00
ENDCHAR
STARTCHAR uacute
ENCODING 250
SWIDTH 480 0
DWIDTH 5 0
BBX 5 8 0 0
BITMAP
70
d8
d8
d8
70
50
50
00
ENDCHAR
STARTCHAR ucircumflex
ENCODING 251
SWIDTH 480 0
DWIDTH 5 0
BBX 5 8 0 0
BITMAP
70
d8
d8
d8
70
20
00
f8
ENDCHAR
STARTCHAR udiaeresis
ENCODING 252
SWIDTH 480 0
DWIDTH 5 0
BBX 5 8 0 0
BITMAP
00
20
10
70
d8
d8
d8
70
ENDCHAR
STARTCHAR yacute
ENCODING 253
SWIDTH 480 0
DWIDTH 5 0
BBX 5 11 0 -3
BITMAP
40
40
20
00
d8
d0
d0
d0
70
10
20
ENDCHAR
STARTCHAR thorn
ENCODING 254
SWIDTH 480 0
DWIDTH 5 0
BBX 4 10 0 -3
BITMAP
00
d0
d0
d0
d0
70
60
90
00
d0
ENDCHAR
STARTCHAR ydiaeresis
ENCODING 255
SWIDTH 480 0
DWIDTH 5 0
BBX 5 11 0 -3
BITMAP
d0
d0
d0
70
50
50
00
d8
d0
d0
d0
ENDCHAR
ENDFONT
